<svg xmlns="http://www.w3.org/2000/svg" width="120" viewBox="0 0 360 46"><g fill="none" stroke="#D7D7D7" stroke-width=".91"><path fill="#1A1315" d="M13.945 28.307a84.996 84.996 0 0 1-5.241-1.965c-1.573-.7-2.927-1.529-4.062-2.49a10.68 10.68 0 0 1-2.687-3.407c-.611-1.354-.917-2.992-.917-4.914 0-3.713 1.42-6.683 4.259-8.91 2.883-2.228 6.901-3.342 12.055-3.342 1.879 0 3.626.13 5.242.393 1.616.262 2.992.677 4.128 1.245 1.18.524 2.096 1.223 2.752 2.096.655.83.982 1.813.982 2.949 0 1.135-.262 2.118-.786 2.948a8.411 8.411 0 0 1-1.9 2.031c-.96-.611-2.25-1.135-3.866-1.572-1.616-.48-3.385-.72-5.307-.72-1.965 0-3.407.283-4.324.85-.917.525-1.376 1.202-1.376 2.032 0 .655.284 1.201.852 1.638.568.393 1.42.764 2.555 1.114l3.473 1.114c4.106 1.31 7.25 2.992 9.435 5.045 2.227 2.009 3.341 4.76 3.341 8.255 0 3.713-1.463 6.727-4.39 9.042-2.926 2.271-7.229 3.407-12.907 3.407-2.01 0-3.888-.175-5.635-.524-1.703-.306-3.21-.765-4.52-1.376-1.267-.655-2.272-1.441-3.015-2.359-.699-.96-1.048-2.053-1.048-3.276 0-1.266.371-2.337 1.114-3.21.742-.918 1.55-1.616 2.424-2.097 1.223.961 2.708 1.791 4.455 2.49 1.791.699 3.735 1.048 5.832 1.048 2.14 0 3.647-.327 4.52-.983.874-.655 1.311-1.42 1.311-2.293 0-.873-.35-1.529-1.048-1.965-.7-.48-1.682-.94-2.949-1.376l-2.752-.918Z"/><path fill="#2C181B" d="M68.724 44.032c-.437.131-1.136.262-2.097.393a20.38 20.38 0 0 1-2.882.197 16.01 16.01 0 0 1-2.621-.197c-.743-.13-1.376-.393-1.9-.786-.525-.393-.94-.917-1.245-1.572-.262-.7-.393-1.595-.393-2.687V24.835c0-1.791-.459-3.036-1.376-3.735-.874-.742-1.966-1.114-3.276-1.114-.874 0-1.704.11-2.49.328-.786.218-1.42.48-1.9.786v22.932c-.437.131-1.136.262-2.097.393a20.38 20.38 0 0 1-2.883.197 16.01 16.01 0 0 1-2.62-.197c-.743-.13-1.376-.393-1.9-.786-.525-.393-.94-.917-1.245-1.572-.262-.7-.394-1.595-.394-2.687V1.38c.48-.088 1.18-.197 2.097-.328A16.085 16.085 0 0 1 42.385.79c.96 0 1.813.066 2.555.197.787.13 1.442.393 1.966.786s.917.939 1.18 1.638c.305.655.458 1.529.458 2.62v6.422c.568-.219 1.42-.46 2.555-.721 1.18-.306 2.468-.459 3.866-.459 4.324 0 7.688 1.092 10.09 3.276 2.446 2.14 3.669 5.351 3.669 9.632v19.852Z"/><path fill="#3F1C21" d="M88.656 37.022c.743 0 1.55-.066 2.424-.197.918-.175 1.595-.393 2.032-.655v-5.242l-4.718.393c-1.223.088-2.228.35-3.014.787-.786.436-1.18 1.092-1.18 1.965 0 .874.328 1.594.984 2.162.699.524 1.856.787 3.472.787Zm-.524-25.75c2.359 0 4.5.24 6.421.72 1.966.481 3.625 1.224 4.98 2.229a9.488 9.488 0 0 1 3.21 3.734c.743 1.485 1.114 3.254 1.114 5.307V37.94c0 1.136-.328 2.075-.983 2.817a9.26 9.26 0 0 1-2.228 1.835c-2.839 1.703-6.836 2.555-11.99 2.555-2.315 0-4.411-.218-6.29-.655-1.834-.437-3.429-1.092-4.783-1.966a9.4 9.4 0 0 1-3.08-3.341c-.698-1.354-1.047-2.927-1.047-4.718 0-3.014.895-5.329 2.686-6.945 1.79-1.616 4.564-2.62 8.32-3.014l8.584-.917v-.459c0-1.266-.568-2.162-1.703-2.686-1.092-.568-2.687-.852-4.783-.852-1.66 0-3.276.175-4.849.524-1.572.35-2.992.787-4.259 1.31-.568-.392-1.048-.982-1.441-1.768a5.908 5.908 0 0 1-.59-2.556c0-1.135.262-2.03.786-2.686.568-.699 1.42-1.288 2.556-1.769 1.266-.48 2.752-.83 4.455-1.048a39.74 39.74 0 0 1 4.914-.328Z"/><path fill="#512126" d="M121.233 44.032c-.437.131-1.136.262-2.097.393a20.38 20.38 0 0 1-2.883.197 16.01 16.01 0 0 1-2.62-.197c-.743-.13-1.377-.393-1.9-.786-.525-.393-.94-.917-1.246-1.572-.262-.7-.393-1.595-.393-2.687V19.724c0-1.004.175-1.856.524-2.555a6.357 6.357 0 0 1 1.638-1.966c.7-.567 1.551-1.07 2.556-1.507a25.173 25.173 0 0 1 7.01-2.03 22.328 22.328 0 0 1 3.8-.328c2.097 0 3.757.415 4.98 1.245 1.223.786 1.835 2.096 1.835 3.93a6.65 6.65 0 0 1-.262 1.835 8.484 8.484 0 0 1-.656 1.573c-.917 0-1.856.044-2.817.13-.961.088-1.9.22-2.817.394-.918.175-1.791.371-2.621.59-.786.174-1.463.393-2.031.655v22.342Z"/><path fill="#63252C" d="M151.89 45.146c-2.577 0-4.98-.35-7.207-1.048-2.184-.743-4.106-1.835-5.766-3.276-1.616-1.442-2.905-3.254-3.866-5.438-.917-2.184-1.376-4.74-1.376-7.666 0-2.883.459-5.351 1.376-7.404.961-2.097 2.206-3.8 3.735-5.11a14.158 14.158 0 0 1 5.241-2.949 18.942 18.942 0 0 1 6.028-.983c2.315 0 4.412.35 6.29 1.049 1.922.698 3.56 1.66 4.914 2.882a12.287 12.287 0 0 1 3.21 4.39c.787 1.704 1.18 3.56 1.18 5.57 0 1.485-.415 2.62-1.245 3.406-.83.787-1.987 1.289-3.473 1.507l-16.183 2.425c.48 1.441 1.463 2.533 2.948 3.276 1.486.699 3.19 1.048 5.111 1.048 1.79 0 3.473-.218 5.045-.655 1.616-.48 2.927-1.027 3.931-1.638.7.437 1.289 1.048 1.77 1.834.48.787.72 1.617.72 2.49 0 1.966-.917 3.429-2.752 4.39-1.398.743-2.97 1.245-4.717 1.507-1.747.262-3.385.393-4.914.393Zm-1.835-25.75c-1.048 0-1.965.175-2.752.525-.742.35-1.354.808-1.834 1.376a5.587 5.587 0 0 0-1.114 1.834 7.966 7.966 0 0 0-.393 2.031l11.204-1.834c-.131-.874-.612-1.747-1.442-2.62-.83-.875-2.053-1.311-3.669-1.311Z"/><path fill="#762A32" d="M186.098 22.804c1.835 0 3.232-.415 4.193-1.245 1.005-.874 1.507-2.184 1.507-3.931 0-1.66-.524-2.927-1.572-3.8-1.005-.918-2.49-1.376-4.455-1.376-.7 0-1.29.021-1.77.065-.436 0-.895.044-1.375.131v10.156h3.472Zm-3.407 21.032c-.48.13-1.245.262-2.293.393-1.005.13-2.01.196-3.014.196-1.005 0-1.9-.087-2.686-.262-.743-.13-1.376-.393-1.9-.786-.525-.393-.918-.94-1.18-1.638-.262-.699-.393-1.616-.393-2.752V8.127c0-.917.24-1.616.72-2.096.525-.525 1.224-.94 2.097-1.245 1.486-.524 3.167-.896 5.045-1.114a42.626 42.626 0 0 1 5.766-.393c6.028 0 10.636 1.288 13.825 3.865 3.189 2.578 4.783 6.072 4.783 10.484 0 2.14-.35 4.084-1.048 5.83a11.864 11.864 0 0 1-3.014 4.456c-1.31 1.223-2.992 2.184-5.045 2.883-2.01.655-4.347.983-7.011.983h-4.652v12.056Z"/><path fill="#882E38" d="M239.676 28.176c0 2.709-.415 5.133-1.245 7.273-.83 2.097-2.01 3.866-3.538 5.307-1.485 1.442-3.276 2.534-5.373 3.276-2.096.743-4.433 1.114-7.01 1.114-2.578 0-4.914-.393-7.011-1.18-2.097-.786-3.91-1.9-5.438-3.34-1.485-1.486-2.643-3.277-3.473-5.373-.83-2.097-1.245-4.456-1.245-7.077 0-2.577.415-4.914 1.245-7.01.83-2.097 1.988-3.866 3.473-5.307 1.529-1.486 3.341-2.621 5.438-3.407 2.097-.787 4.433-1.18 7.01-1.18 2.578 0 4.915.415 7.011 1.245 2.097.786 3.888 1.922 5.373 3.407 1.529 1.442 2.708 3.21 3.538 5.307.83 2.097 1.245 4.412 1.245 6.945Zm-22.932 0c0 2.665.502 4.718 1.507 6.16 1.048 1.397 2.49 2.096 4.324 2.096 1.835 0 3.232-.72 4.193-2.162 1.005-1.442 1.507-3.473 1.507-6.094 0-2.62-.502-4.63-1.507-6.027-1.004-1.442-2.424-2.163-4.258-2.163-1.835 0-3.255.721-4.26 2.163-1.004 1.397-1.506 3.407-1.506 6.027Z"/><path fill="#9A333E" d="M271.336 34.597c0 3.32-1.245 5.919-3.735 7.797-2.49 1.878-6.158 2.818-11.007 2.818-1.834 0-3.538-.131-5.11-.394-1.573-.262-2.927-.655-4.063-1.179-1.092-.568-1.965-1.267-2.62-2.097-.612-.83-.918-1.812-.918-2.948 0-1.048.219-1.922.655-2.62a6.47 6.47 0 0 1 1.573-1.835c1.267.699 2.708 1.332 4.324 1.9 1.66.524 3.56.786 5.7.786 1.355 0 2.381-.197 3.08-.59.742-.393 1.114-.917 1.114-1.572 0-.612-.262-1.092-.787-1.442-.524-.349-1.397-.633-2.62-.851l-1.966-.393c-3.8-.743-6.64-1.9-8.518-3.473-1.834-1.616-2.751-3.91-2.751-6.88 0-1.616.35-3.08 1.048-4.39.699-1.31 1.682-2.402 2.948-3.275 1.267-.874 2.774-1.551 4.521-2.032 1.791-.48 3.757-.72 5.897-.72 1.616 0 3.123.13 4.52.393 1.442.218 2.687.568 3.736 1.048 1.048.48 1.878 1.114 2.49 1.9.61.743.917 1.638.917 2.687 0 1.004-.197 1.878-.59 2.62a5.52 5.52 0 0 1-1.376 1.77c-.35-.219-.874-.437-1.572-.656a15.807 15.807 0 0 0-2.294-.655 24.055 24.055 0 0 0-2.555-.524 14.784 14.784 0 0 0-2.293-.197c-1.442 0-2.555.175-3.342.524-.786.306-1.179.808-1.179 1.507 0 .48.218.874.655 1.18.437.305 1.267.59 2.49.851l2.031.46c4.193.96 7.164 2.292 8.91 3.996 1.792 1.66 2.687 3.822 2.687 6.486Z"/><path fill="#AC3743" d="M287.222 33.156c0 1.136.35 1.944 1.049 2.424.742.48 1.769.72 3.08.72.654 0 1.331-.043 2.03-.13.7-.131 1.31-.284 1.835-.459.393.48.72 1.027.983 1.638.305.568.458 1.267.458 2.097 0 1.66-.633 3.014-1.9 4.062-1.223 1.048-3.407 1.573-6.552 1.573-3.844 0-6.814-.874-8.91-2.621-2.053-1.747-3.08-4.587-3.08-8.518V5.9c.48-.131 1.158-.263 2.031-.394a15.384 15.384 0 0 1 2.883-.262c1.922 0 3.407.35 4.455 1.049 1.092.655 1.638 2.074 1.638 4.258v4.194h8.584c.262.48.502 1.092.72 1.834.262.7.393 1.485.393 2.359 0 1.529-.35 2.643-1.048 3.342-.655.655-1.55.982-2.686.982h-5.963v9.894Z"/><path fill="#BF3C49" d="M318.135 45.146c-2.577 0-4.98-.35-7.207-1.048-2.184-.743-4.106-1.835-5.766-3.276-1.616-1.442-2.904-3.254-3.865-5.438-.918-2.184-1.376-4.74-1.376-7.666 0-2.883.458-5.351 1.376-7.404.96-2.097 2.206-3.8 3.734-5.11a14.158 14.158 0 0 1 5.242-2.949 18.942 18.942 0 0 1 6.028-.983c2.315 0 4.411.35 6.29 1.049 1.922.698 3.56 1.66 4.914 2.882a12.287 12.287 0 0 1 3.21 4.39c.786 1.704 1.18 3.56 1.18 5.57 0 1.485-.415 2.62-1.245 3.406-.83.787-1.988 1.289-3.473 1.507l-16.183 2.425c.48 1.441 1.463 2.533 2.948 3.276 1.485.699 3.189 1.048 5.11 1.048 1.792 0 3.473-.218 5.046-.655 1.616-.48 2.926-1.027 3.93-1.638.7.437 1.29 1.048 1.77 1.834.48.787.72 1.617.72 2.49 0 1.966-.917 3.429-2.751 4.39-1.398.743-2.97 1.245-4.718 1.507-1.747.262-3.385.393-4.914.393Zm-1.834-25.75c-1.049 0-1.966.175-2.752.525-.743.35-1.354.808-1.835 1.376a5.587 5.587 0 0 0-1.113 1.834 7.967 7.967 0 0 0-.394 2.031l11.204-1.834c-.13-.874-.611-1.747-1.441-2.62-.83-.875-2.053-1.311-3.67-1.311Z"/><path fill="#D1404F" d="M347.757 44.032c-.436.131-1.135.262-2.096.393a20.38 20.38 0 0 1-2.883.197 16.01 16.01 0 0 1-2.621-.197c-.743-.13-1.376-.393-1.9-.786s-.94-.917-1.245-1.572c-.262-.7-.393-1.595-.393-2.687V19.724c0-1.004.175-1.856.524-2.555a6.356 6.356 0 0 1 1.638-1.966c.699-.567 1.55-1.07 2.555-1.507a25.173 25.173 0 0 1 7.011-2.03 22.328 22.328 0 0 1 3.8-.328c2.097 0 3.757.415 4.98 1.245 1.223.786 1.834 2.096 1.834 3.93a6.65 6.65 0 0 1-.262 1.835 8.485 8.485 0 0 1-.655 1.573c-.917 0-1.856.044-2.817.13-.961.088-1.9.22-2.818.394-.917.175-1.79.371-2.62.59-.787.174-1.464.393-2.032.655v22.342Z"/></g></svg>